<mxfile host="65bd71144e">
    <diagram id="9fs9IZd8SvGHSq2942I6" name="Page-1">
        <mxGraphModel dx="702" dy="763" grid="0" gridSize="10" guides="1" tooltips="1" connect="1" arrows="1" fold="1" page="1" pageScale="1" pageWidth="850" pageHeight="1100" math="0" shadow="0">
            <root>
                <mxCell id="0"/>
                <mxCell id="1" parent="0"/>
                <mxCell id="2" value="EROS" style="rounded=0;whiteSpace=wrap;html=1;fontFamily=Courier New;fillColor=none;strokeColor=none;fontSize=19;" parent="1" vertex="1">
                    <mxGeometry x="40" y="80" width="80" height="40" as="geometry"/>
                </mxCell>
                <mxCell id="3" value="[transport]" style="rounded=0;whiteSpace=wrap;html=1;fontFamily=Courier New;fillColor=none;strokeColor=none;fontSize=19;" vertex="1" parent="1">
                    <mxGeometry x="120" y="80" width="160" height="40" as="geometry"/>
                </mxCell>
                <mxCell id="4" value="[application]" style="rounded=0;whiteSpace=wrap;html=1;fontFamily=Courier New;fillColor=none;strokeColor=none;fontSize=19;" vertex="1" parent="1">
                    <mxGeometry x="280" y="80" width="160" height="40" as="geometry"/>
                </mxCell>
                <mxCell id="7" value="[application]" style="rounded=0;whiteSpace=wrap;html=1;fontFamily=Courier New;fillColor=none;strokeColor=none;fontSize=19;" vertex="1" parent="1">
                    <mxGeometry x="436" y="78" width="160" height="40" as="geometry"/>
                </mxCell>
            </root>
        </mxGraphModel>
    </diagram>
</mxfile>